<svg version="1.2" xmlns="http://www.w3.org/2000/svg" viewBox="0 0 75 73" width="75" height="73">
	<title>logo-ftmscan-svg</title>
	<style>
		.s0 { fill: #001f68 } 
		.s1 { fill: none;stroke: #ffffff;stroke-linecap: round;stroke-linejoin: round;stroke-width: 4 } 
	</style>
	<g id="Layer">
		<path id="Layer" fill-rule="evenodd" class="s0" d="m119.1 15.6v6.8h-17.8v11.3h14.3v6.5h-14.3v17.8h-8.5v-42.4zm34.5 0v6.8h-11.7v35.6h-8.4v-35.6h-11.7v-6.8zm50.4 0.5v41.9h-8.4v-29.2l-10.8 29.2h-7.3l-10.7-29.1v29.1h-8.5v-41.9h10.3l12.7 31.5 12.5-31.5zm36.8 30.3q0 0.8-0.1 1.6-0.1 0.8-0.3 1.5-0.2 0.8-0.6 1.5-0.3 0.7-0.7 1.4-0.4 0.7-0.9 1.3-0.5 0.7-1.1 1.2-0.7 0.6-1.3 1-0.7 0.5-1.5 0.9-0.9 0.4-1.8 0.7-1 0.4-1.9 0.6-1 0.2-2 0.3-1 0-2 0-1 0-2.1-0.1-1 0-2-0.2-1-0.2-2-0.5-1-0.3-1.9-0.7-0.9-0.4-1.7-0.8-0.8-0.5-1.5-1-0.7-0.6-1.3-1.2-0.7-0.7-1.2-1.4-0.5-0.8-1-1.6-0.4-0.8-0.7-1.6-0.3-0.9-0.5-1.7-0.2-0.9-0.2-1.8h9q0 0.6 0.2 1.2 0.1 0.5 0.4 1.1 0.3 0.5 0.6 1 0.4 0.5 0.8 1 0.5 0.4 1.1 0.7 0.5 0.4 1.1 0.6 0.6 0.2 1.3 0.3 0.6 0.1 1.2 0.1 0.6 0 1.1-0.1 0.6-0.1 1.1-0.2 0.5-0.2 1-0.5 0.5-0.3 0.9-0.7 0.3-0.3 0.6-0.7 0.3-0.5 0.5-0.9 0.2-0.5 0.2-1 0.1-0.5 0.1-1 0-0.4 0-0.9-0.1-0.4-0.3-0.8-0.1-0.4-0.3-0.8-0.3-0.4-0.5-0.8-0.3-0.3-0.7-0.6-0.3-0.3-0.7-0.5-0.3-0.3-0.7-0.5-0.4-0.2-0.8-0.4-1.8-0.8-4.8-1.8-0.9-0.3-1.7-0.6-0.8-0.3-1.6-0.6-0.8-0.3-1.6-0.7-0.8-0.3-1.6-0.7-0.6-0.4-1.2-0.8-0.6-0.4-1.2-0.8-0.5-0.5-1-1.1-0.5-0.5-0.9-1.1-0.5-0.7-0.8-1.5-0.4-0.7-0.6-1.5-0.2-0.9-0.3-1.7-0.1-0.9-0.1-1.7 0-1.2 0.2-2.4 0.3-1.3 0.8-2.4 0.5-1.1 1.2-2.1 0.8-0.9 1.8-1.7 3.9-3.2 10.4-3.2 6.7 0 10.7 3.3 1 0.8 1.8 1.7 0.8 1 1.4 2.1 0.5 1.1 0.9 2.4 0.3 1.2 0.4 2.4h-9.1q-0.1-0.5-0.2-1-0.2-0.5-0.4-1-0.3-0.5-0.6-0.9-0.3-0.5-0.7-0.8-0.5-0.4-1-0.7-0.5-0.3-1-0.5-0.6-0.2-1.1-0.3-0.6 0-1.2 0-0.5 0-1 0-0.5 0.1-1 0.3-0.5 0.1-0.9 0.4-0.5 0.2-0.9 0.5-0.3 0.4-0.6 0.8-0.3 0.4-0.5 0.9-0.2 0.4-0.3 0.9 0 0.5 0 1 0 0.4 0.1 0.8 0 0.5 0.2 0.9 0.1 0.3 0.3 0.7 0.2 0.4 0.5 0.7 0.3 0.3 0.6 0.6 0.4 0.3 0.7 0.5 0.4 0.3 0.8 0.5 0.3 0.2 0.7 0.4 0.6 0.2 1.2 0.5 0.6 0.2 1.1 0.4 0.6 0.3 1.2 0.5 0.6 0.2 1.2 0.3 0.8 0.3 1.7 0.6 0.8 0.4 1.6 0.7 0.9 0.3 1.7 0.7 0.8 0.4 1.6 0.7 0.7 0.4 1.3 0.8 0.6 0.4 1.1 0.9 0.6 0.4 1.1 1 0.4 0.5 0.9 1.1 0.4 0.7 0.8 1.5 0.4 0.8 0.6 1.7 0.2 0.8 0.3 1.7 0.1 0.8 0.1 1.7zm21.1-22.1q1.5 0 2.9 0.2 1.4 0.2 2.8 0.6 1.4 0.5 2.6 1.2 1.3 0.6 2.4 1.5 1.1 0.9 2 2 0.9 1 1.6 2.3 0.7 1.2 1.2 2.5 0.4 1.3 0.6 2.7h-8.9q-0.1-0.6-0.3-1.2-0.3-0.6-0.6-1.1-0.3-0.5-0.7-1-0.4-0.5-0.9-0.9-0.5-0.4-1.1-0.7-0.6-0.3-1.2-0.5-0.6-0.2-1.2-0.2-0.7-0.1-1.3-0.1-0.8 0-1.6 0.1-0.8 0.2-1.5 0.5-0.7 0.3-1.4 0.8-0.6 0.5-1.2 1.1-2.2 2.5-2.2 7.3 0 4.8 2.2 7.3 0.6 0.6 1.2 1 0.7 0.5 1.4 0.8 0.7 0.4 1.5 0.5 0.8 0.2 1.6 0.2 0.6 0 1.3-0.1 0.6-0.1 1.2-0.3 0.6-0.2 1.2-0.5 0.6-0.3 1.1-0.7 0.5-0.4 0.9-0.8 0.4-0.5 0.7-1 0.3-0.6 0.6-1.1 0.2-0.6 0.3-1.2h8.9q-0.2 1.3-0.6 2.7-0.5 1.3-1.2 2.5-0.7 1.2-1.6 2.3-0.9 1.1-2 1.9-1.1 0.9-2.4 1.6-1.2 0.7-2.6 1.1-1.4 0.5-2.8 0.7-1.4 0.2-2.9 0.1-1.1 0-2.2-0.1-1.1-0.1-2.2-0.4-1.1-0.2-2.2-0.6-1-0.4-2-0.9-0.9-0.6-1.8-1.2-0.8-0.6-1.6-1.4-0.7-0.7-1.3-1.6-0.7-0.8-1.2-1.8-0.5-1-0.9-2.1-0.4-1.1-0.7-2.3-0.3-1.1-0.4-2.3-0.1-1.1-0.1-2.3 0-1.2 0.1-2.4 0.1-1.1 0.4-2.3 0.3-1.1 0.7-2.3 0.4-1.1 0.9-2.1 0.5-0.9 1.1-1.8 0.7-0.9 1.4-1.6 0.8-0.8 1.6-1.4 0.9-0.6 1.8-1.1 1-0.5 2-0.9 1.1-0.4 2.2-0.7 1.1-0.2 2.2-0.4 1.1-0.1 2.2-0.1zm35.1 0q1 0 1.9 0.1 1 0.1 1.9 0.4 0.9 0.2 1.8 0.6 0.8 0.4 1.6 0.9 0.8 0.5 1.4 1.1 0.7 0.6 1.2 1.2 0.5 0.7 1 1.5 0.4 0.7 0.7 1.6v-6.9h8.4v33.2h-8.4v-7q-0.3 0.9-0.7 1.6-0.5 0.8-1 1.5-0.5 0.7-1.2 1.2-0.6 0.6-1.4 1.1-0.8 0.5-1.6 0.9-0.9 0.4-1.8 0.7-0.9 0.2-1.9 0.3-0.9 0.1-1.9 0.1-1 0-1.9-0.1-1-0.1-2-0.4-0.9-0.2-1.9-0.6-0.9-0.4-1.7-0.9-0.9-0.5-1.6-1.2-0.8-0.6-1.5-1.4-0.6-0.7-1.2-1.6-0.5-0.8-1-1.7-0.5-1.1-0.8-2.2-0.4-1.1-0.6-2.3-0.3-1.1-0.4-2.3-0.1-1.1-0.1-2.3 0-1.2 0.1-2.4 0.1-1.1 0.4-2.3 0.2-1.1 0.6-2.2 0.3-1.1 0.8-2.2 0.5-0.9 1-1.8 0.6-0.8 1.2-1.5 0.7-0.8 1.5-1.4 0.7-0.7 1.6-1.2 0.8-0.5 1.7-0.9 1-0.4 1.9-0.7 1-0.2 2-0.4 0.9-0.1 1.9-0.1zm2.7 7.4q-0.9 0-1.8 0.1-0.9 0.2-1.7 0.5-0.8 0.4-1.5 0.9-0.8 0.5-1.4 1.1-0.6 0.7-1.1 1.6-0.5 0.8-0.8 1.7-0.3 0.9-0.4 1.9-0.1 0.9-0.1 1.9 0 0.9 0.1 1.9 0.1 0.9 0.4 1.8 0.3 0.9 0.8 1.8 0.5 0.8 1.1 1.5 0.6 0.7 1.4 1.2 0.7 0.5 1.5 0.8 0.8 0.3 1.7 0.5 0.9 0.1 1.8 0.1 0.9 0 1.7-0.2 0.9-0.1 1.7-0.4 0.8-0.4 1.6-0.9 0.7-0.5 1.3-1.1 0.6-0.7 1.1-1.6 0.5-0.8 0.8-1.7 0.4-0.9 0.5-1.8 0.1-1 0.1-1.9 0.1-1-0.1-1.9-0.1-1-0.4-1.9-0.4-0.9-0.9-1.7-0.4-0.9-1.1-1.6-0.6-0.6-1.3-1.1-0.8-0.5-1.6-0.9-0.8-0.3-1.7-0.4-0.8-0.2-1.7-0.2zm44.7-7.4q1.3-0.1 2.5 0.1 1.3 0.3 2.5 0.8 1.2 0.4 2.2 1.2 1.1 0.7 2 1.7 3.4 3.7 3.4 10.6v19.3h-8.4v-18.4q0-0.8-0.1-1.6-0.1-0.8-0.3-1.6-0.3-0.8-0.7-1.5-0.4-0.8-1-1.4-0.5-0.6-1.1-1-0.7-0.4-1.4-0.7-0.7-0.3-1.5-0.4-0.8-0.1-1.5-0.1-0.8 0-1.6 0.1-0.8 0.1-1.6 0.4-0.7 0.3-1.4 0.8-0.6 0.5-1.2 1-2.2 2.4-2.2 6.8v17.6h-8.4v-33.2h8.4v6.6q0.3-0.8 0.8-1.5 0.4-0.8 1-1.5 0.5-0.6 1.2-1.2 0.6-0.6 1.4-1 0.8-0.5 1.6-0.9 0.9-0.3 1.8-0.6 0.8-0.2 1.7-0.3 1-0.1 1.9-0.1z"/>
		<g id="Layer">
			<rect id="Layer" class="s0" width="73" height="73" rx="10"></rect>
			<g id="Layer">
				<g id="Layer">
					<path id="Layer" class="s1" d="m58.9 47.3q-0.2 0.7-0.5 1.2-0.3 0.6-0.8 1.1-0.5 0.4-1.1 0.8l-17.5 10q-0.5 0.3-1.2 0.5-0.6 0.2-1.3 0.2-0.6 0-1.3-0.2-0.6-0.2-1.2-0.5l-17.5-10q-0.6-0.4-1-0.8-0.5-0.5-0.8-1.1-0.4-0.5-0.5-1.2-0.2-0.6-0.2-1.3v-20q0-0.6 0.2-1.3 0.1-0.6 0.5-1.2 0.3-0.6 0.8-1 0.4-0.5 1-0.8l17.5-10q0.6-0.4 1.2-0.5 0.7-0.2 1.3-0.2 0.7 0 1.3 0.2 0.7 0.1 1.2 0.5l17.6 10q0.5 0.3 1 0.8 0.5 0.4 0.8 1 0.3 0.6 0.5 1.2 0.2 0.7 0.2 1.3v20q0 0.7-0.2 1.3z"/>
					<path id="Layer" class="s1" d="m58.4 23.4l-21.9 12.6-21.8-12.6"/>
					<path id="Layer" class="s1" d="m36.5 61.3v-25.3"/>
				</g>
			</g>
		</g>
	</g>
</svg>